<svg width="32" height="32" viewBox="0 0 32 32" fill="none" xmlns="http://www.w3.org/2000/svg">
<g clip-path="url(#clip0_18_14)">
<rect width="32" height="32" rx="4" fill="white"/>
<path d="M7.42453 20H5.96853V10.354H7.42453V16.022L10.2325 13.084H12.1045L9.47853 15.827L12.2995 20H10.5315L8.47753 16.971L7.42453 18.037V20ZM18.3582 16.828V13.084H19.8142V20H18.3582V18.739C18.1242 19.1637 17.7992 19.4973 17.3832 19.74C16.9759 19.9827 16.5339 20.104 16.0572 20.104C15.2772 20.104 14.6446 19.8657 14.1592 19.389C13.6826 18.9123 13.4442 18.2233 13.4442 17.322V13.084H14.9002V16.88C14.9002 18.154 15.4289 18.791 16.4862 18.791C16.9889 18.791 17.4266 18.6263 17.7992 18.297C18.1719 17.959 18.3582 17.4693 18.3582 16.828ZM23.3825 20H21.9265V10.354H23.3825V20ZM25.5719 19.818C25.3899 19.6273 25.2989 19.3977 25.2989 19.129C25.2989 18.8603 25.3899 18.635 25.5719 18.453C25.7626 18.2623 25.9923 18.167 26.2609 18.167C26.5296 18.167 26.7593 18.2623 26.9499 18.453C27.1406 18.635 27.2359 18.8603 27.2359 19.129C27.2359 19.3977 27.1406 19.6273 26.9499 19.818C26.7593 20.0087 26.5296 20.104 26.2609 20.104C25.9923 20.104 25.7626 20.0087 25.5719 19.818Z" fill="black"/>
</g>
<defs>
<clipPath id="clip0_18_14">
<rect width="32" height="32" fill="white"/>
</clipPath>
</defs>
</svg>
